# File created by Blade
# Date/Time:  Wed Apr 08 16:19:59 2015
# Frame Rate: 120.000 fps
#------------------------------------------------------
:FULLY-SPECIFIED
:DEGREES
2718
root -19.493217 27.992274 -0.618081 355.358734 -78.478781 -413.362590
Spine -75.440330 -15.665295 5.376251
Head -87.711449 3.168483 14.744016
LeftShoulder -16.936354 -1.945982 48.081835
LeftArm 232.905025 -65.202147 -213.881602
LeftForeArm -9.269204 -0.000000 31.344075
LeftHand 18.499721 0.000000 107.416146
LeftHandThumb1 -26.253704 0.000000 33.147579
RightShoulder -28.778977 36.812260 -68.785354
RightArm -48.170532 66.678334 -31.858322
RightForeArm 16.831978 0.000000 56.239288
RightHand 19.246159 0.000000 -90.858850
RightHandThumb1 -24.326973 -0.000000 -32.862282
LeftUpLeg 7.939727 6.116826 14.176774
LeftLeg 71.801141 -0.000000 -0.000000
LeftFoot -13.654304 -0.772849 -17.075389
LeftToeBase -20.420660 -0.000000 0.000000
RightUpLeg 3.530611 -18.653131 -10.879726
RightLeg 76.255688 -0.000000 -0.000000
RightFoot 30.547455 -13.008212 -4.848155
RightToeBase -55.741140 -0.000000 0.000000
2719
root -19.503989 28.003586 -0.591568 355.350185 -78.351115 -413.333893
Spine -75.585752 -15.736544 5.397840
Head -87.416340 3.043160 14.898253
LeftShoulder -16.938231 -1.712493 48.032056
LeftArm 232.783841 -65.285207 -213.958333
LeftForeArm -9.444621 -0.000000 31.624611
LeftHand 18.366073 -0.000000 107.450812
LeftHandThumb1 -26.253704 0.000000 33.147579
RightShoulder -28.655576 36.770825 -68.661489
RightArm -47.811141 66.716520 -31.562917
RightForeArm 16.811829 0.000000 56.179044
RightHand 19.235880 -0.000000 -91.144836
RightHandThumb1 -24.326973 -0.000000 -32.862282
LeftUpLeg 8.079004 6.232794 14.241741
LeftLeg 71.607910 -0.000000 -0.000000
LeftFoot -14.086770 -0.804921 -17.000704
LeftToeBase -19.761537 -0.000000 0.000000
RightUpLeg 3.580572 -18.659812 -10.864578
RightLeg 76.202429 -0.000000 -0.000000
RightFoot 30.548463 -13.088144 -4.759060
RightToeBase -55.572105 -0.000000 0.000000
2720
root -19.513404 28.014545 -0.563367 355.311219 -78.229401 -413.278748
Spine -75.731254 -15.788313 5.419603
Head -87.016316 2.893210 15.035853
LeftShoulder -16.911948 -1.608800 47.966000
LeftArm 232.670755 -65.385222 -213.895736
LeftForeArm -9.433643 0.000000 31.754684
LeftHand 18.420031 -0.000000 107.548167
LeftHandThumb1 -26.253704 0.000000 33.147579
RightShoulder -28.510309 36.699862 -68.534204
RightArm -47.503598 66.742075 -31.284281
RightForeArm 16.890611 -0.000000 56.186885
RightHand 19.219895 -0.000000 -91.196061
RightHandThumb1 -24.326973 -0.000000 -32.862282
LeftUpLeg 8.200082 6.372345 14.303309
LeftLeg 71.437983 -0.000000 -0.000000
LeftFoot -14.462785 -0.770681 -16.832525
LeftToeBase -19.248639 -0.000000 0.000000
RightUpLeg 3.625309 -18.655530 -10.858033
RightLeg 76.155977 -0.000000 -0.000000
RightFoot 30.554204 -13.150781 -4.681202
RightToeBase -55.304644 -0.000000 0.000000
2721
root -19.520280 28.022238 -0.536941 355.312688 -78.085035 -413.265424
Spine -75.857913 -15.859610 5.432327
Head -86.501839 2.693595 15.204922
LeftShoulder -16.919640 -1.440609 47.912610
LeftArm 232.288130 -65.427539 -213.688659
LeftForeArm -9.423244 -0.000000 32.000798
LeftHand 18.506538 -0.000000 107.640322
LeftHandThumb1 -26.253704 0.000000 33.147579
RightShoulder -28.357757 36.566495 -68.399400
RightArm -47.298082 66.706109 -31.061129
RightForeArm 16.999969 0.000000 56.218048
RightHand 19.234394 -0.000000 -91.207011
RightHandThumb1 -24.326973 -0.000000 -32.862282
LeftUpLeg 8.278221 6.464369 14.355750
LeftLeg 71.302714 -0.000000 -0.000000
LeftFoot -14.730417 -0.753926 -16.787672
LeftToeBase -19.078312 -0.000000 0.000000
RightUpLeg 3.664077 -18.682070 -10.855964
RightLeg 76.125144 -0.000000 -0.000000
RightFoot 30.569488 -13.214613 -4.549402
RightToeBase -55.085834 -0.000000 0.000000
2722
root -19.526756 28.027952 -0.503467 355.217088 -78.004492 -413.156692
Spine -75.963898 -15.842116 5.434589
Head -85.892426 2.518429 15.271427
LeftShoulder -16.945578 -1.315414 47.878974
LeftArm 231.844871 -65.497410 -213.480328
LeftForeArm -9.393777 -0.000000 32.318412
LeftHand 18.607070 -0.000000 107.690026
LeftHandThumb1 -26.253704 0.000000 33.147579
RightShoulder -28.220741 36.418003 -68.311689
RightArm -47.128207 66.659175 -30.832340
RightForeArm 17.110388 0.000000 56.260083
RightHand 19.157962 -0.000000 -91.238832
RightHandThumb1 -24.326973 -0.000000 -32.862282
LeftUpLeg 8.383562 6.569683 14.341181
LeftLeg 71.163404 -0.000000 -0.000000
LeftFoot -15.063528 -0.680618 -16.712349
LeftToeBase -18.716782 -0.000000 0.000000
RightUpLeg 3.675738 -18.641006 -10.890614
RightLeg 76.123136 -0.000000 -0.000000
RightFoot 30.580921 -13.241550 -4.397883
RightToeBase -54.934778 -0.000000 0.000000
2723
root -19.536200 28.029062 -0.473286 355.339824 -77.909337 -413.291125
Spine -75.990897 -15.827677 5.481468
Head -85.134146 2.250128 15.409565
LeftShoulder -17.037415 -1.119272 47.800810
LeftArm 231.018267 -65.437416 -212.910998
LeftForeArm -9.268172 -0.000000 32.634158
LeftHand 18.603822 -0.000000 107.743282
LeftHandThumb1 -26.253704 0.000000 33.147579
RightShoulder -28.229974 36.230129 -68.371754
RightArm -46.958312 66.616157 -30.466270
RightForeArm 17.246118 -0.000000 56.345986
RightHand 19.134598 -0.000000 -91.244968
RightHandThumb1 -24.326973 -0.000000 -32.862282
LeftUpLeg 8.471825 6.700938 14.425934
LeftLeg 71.094933 -0.000000 -0.000000
LeftFoot -15.418652 -0.565228 -16.466438
LeftToeBase -18.236308 -0.000000 0.000000
RightUpLeg 3.698188 -18.620456 -10.889719
RightLeg 76.151915 -0.000000 -0.000000
RightFoot 30.560444 -13.257835 -4.206908
RightToeBase -54.704961 -0.000000 0.000000
2724
root -19.543613 28.025204 -0.445240 355.499423 -77.792207 -413.443721
Spine -76.034447 -15.839126 5.538881
Head -84.293320 1.975395 15.546452
LeftShoulder -17.114311 -0.921538 47.734086
LeftArm 230.287888 -65.364924 -212.475784
LeftForeArm -9.155643 0.000000 32.987789
LeftHand 18.639078 -0.000000 107.766646
LeftHandThumb1 -26.253704 0.000000 33.147579
RightShoulder -28.270158 36.069960 -68.461919
RightArm -46.733391 66.545847 -30.020811
RightForeArm 17.345761 0.000000 56.465216
RightHand 19.104141 0.000000 -91.034155
RightHandThumb1 -24.326973 -0.000000 -32.862282
LeftUpLeg 8.468639 6.790599 14.501802
LeftLeg 71.102919 -0.000000 -0.000000
LeftFoot -15.637588 -0.490773 -16.281417
LeftToeBase -18.013640 -0.000000 0.000000
RightUpLeg 3.681679 -18.622282 -10.885970
RightLeg 76.208606 -0.000000 -0.000000
RightFoot 30.571078 -13.233620 -3.987404
RightToeBase -54.518831 -0.000000 0.000000
2725
root -19.554570 28.018226 -0.411266 355.567769 -77.732351 -413.548764
Spine -75.990881 -15.779760 5.595026
Head -83.372477 1.684579 15.642220
LeftShoulder -17.208495 -0.804443 47.643150
LeftArm 229.694663 -65.307792 -212.096345
LeftForeArm -9.021107 0.000000 33.275490
LeftHand 18.527299 -0.000000 107.831625
LeftHandThumb1 -26.253704 0.000000 33.147579
RightShoulder -28.315284 35.863626 -68.579392
RightArm -46.693785 66.474535 -29.706362
RightForeArm 17.496663 0.000000 56.580876
RightHand 19.096939 -0.000000 -91.058106
RightHandThumb1 -24.326973 -0.000000 -32.862282
LeftUpLeg 8.558760 6.888456 14.547732
LeftLeg 71.086199 -0.000000 -0.000000
LeftFoot -15.941410 -0.447283 -16.169780
LeftToeBase -17.733222 -0.000000 0.000000
RightUpLeg 3.689517 -18.545283 -10.913634
RightLeg 76.287492 -0.000000 -0.000000
RightFoot 30.616357 -13.167726 -3.756499
RightToeBase -54.469278 -0.000000 0.000000
